<svg width="800" height="500" viewBox="0 0 800 500" fill="none" xmlns="http://www.w3.org/2000/svg">
  <rect width="800" height="500" fill="#2A2F3A"/>
  <rect y="320" width="800" height="180" fill="#1F232C"/>
  <rect x="60" y="80" width="120" height="300" rx="8" fill="#3A404D"/>
  <rect x="240" y="80" width="120" height="300" rx="8" fill="#343A46"/>
  <rect x="420" y="80" width="120" height="300" rx="8" fill="#3A404D"/>
  <rect x="600" y="80" width="120" height="300" rx="8" fill="#343A46"/>
  <rect x="96" y="320" width="48" height="80" fill="#111827"/>
  <rect x="276" y="320" width="48" height="80" fill="#111827"/>
  <rect x="456" y="320" width="48" height="80" fill="#111827"/>
  <rect x="636" y="320" width="48" height="80" fill="#111827"/>
  <rect x="96" y="320" width="48" height="80" fill="#FBBF24" fill-opacity="0.9"/>
  <rect x="276" y="320" width="48" height="80" fill="#FBBF24" fill-opacity="0.9"/>
  <rect x="456" y="320" width="48" height="80" fill="#FBBF24" fill-opacity="0.9"/>
  <rect x="636" y="320" width="48" height="80" fill="#FBBF24" fill-opacity="0.9"/>
  <rect x="96" y="320" width="48" height="20" fill="#111827"/>
  <rect x="276" y="320" width="48" height="20" fill="#111827"/>
  <rect x="456" y="320" width="48" height="20" fill="#111827"/>
  <rect x="636" y="320" width="48" height="20" fill="#111827"/>
  <circle cx="400" cy="140" r="14" fill="#E5E7EB"/>
  <rect x="385" y="154" width="30" height="6" rx="3" fill="#D1D5DB"/>
</svg>
